<?xml version="1.0" encoding="utf-8"?>
<!-- Generator: Adobe Illustrator 24.0.1, SVG Export Plug-In . SVG Version: 6.00 Build 0)  -->
<svg version="1.1" id="Layer_1" xmlns="http://www.w3.org/2000/svg" xmlns:xlink="http://www.w3.org/1999/xlink" x="0px" y="0px"
	 viewBox="0 0 109.1 103.2" style="enable-background:new 0 0 109.1 103.2;" xml:space="preserve">
<style type="text/css">
	.st0{fill:#EFEAEA;}
	.st1{fill:none;stroke:#EEEAE9;stroke-width:0.5;stroke-miterlimit:10;}
	.st2{fill:#EEEAE9;stroke:#EEEAE9;stroke-width:0.5;stroke-miterlimit:10;}
	.st3{opacity:0.91;}
</style>
<path class="st0" d="M50.3,34.2L50.3,34.2L50.3,34.2h0.2c0.1,0.2,0.1,0.5,0.2,0.7c0,0.1,0.4,0.3,0.4,0.3c0.1,0.1,0.3,0.3,0.4,0.5
	c0.2,0.3,0.4,0.7,0.7,1.1c0.2,0.4,0.4,0.7,0.7,1s0.7,0.6,1,1c0.1,0.2,0.2,0.3,0.3,0.5c0.2,0.3,0.3,0.6,0.5,0.9
	c-0.3-0.1-0.5-0.3-0.8-0.4c-0.2-0.1-0.3-0.2-0.5-0.3s-0.3-0.3-0.4-0.4c-0.1-0.1-0.3-0.2-0.4-0.2c-0.3-0.1-0.5-0.3-0.8-0.4
	c-0.2-0.1-0.4-0.2-0.6-0.2c0.2,0.7,1.1,1.1,1.5,1.4c0.6,0.3,1.2,0.7,1.4,1.5c-0.9-0.4-1.8-1-2.7-1.6c0.6,0.5,0.9,1,1.3,1.8
	c0.2,0.3,0.4,0.7,0.6,1c0.3,0.3,0.8,0.5,1.2,0.7c0.1,0,0.2,0.1,0.3,0.1s0.2,0.1,0.3,0.1s0.2,0,0.3,0.1c0.3,0.1,0.6,0.1,0.9,0.2
	c-0.1,0.1-0.3,0.1-0.4,0c-0.7-0.1-1.4-0.1-2-0.3c-0.1,0-0.4-0.1-0.4,0c-0.1,0.1,0,0.3,0.1,0.4c0.2,0.3,0.4,0.4,0.7,0.5
	c1.5,0.7,3,1.2,4.6,1.3c-2.8,0.8-5.9-0.8-7.5-3.7c-0.2-0.3-0.3-0.6-0.5-0.8c-0.4-0.4-0.9-0.6-1.4-0.8c0-0.2,0-0.5,0.1-0.7
	c0.5-0.5,1,0.7,1.3,1c0,0,0.1,0.1,0.1,0c0.1-0.1,0-0.6,0-0.7c0-0.2,0-0.3-0.1-0.5c-0.2-0.4-0.4-0.7-0.5-1.1c-0.3,0-0.5,0-0.8,0
	c0.3-1,0.4-2.8,0.8-3.8C50.3,34.4,50.2,34.3,50.3,34.2C50.2,34.2,50.2,34.2,50.3,34.2L50.3,34.2z"/>
<path class="st1" d="M42.3,18.7v-0.6c0-0.4-0.3-0.7-0.6-0.7h-0.3c-0.3,0-0.6,0.3-0.6,0.7v0.6h-1.4V18c0-0.4-0.3-0.7-0.6-0.7h-0.3
	c-0.3,0-0.6,0.3-0.6,0.7v0.7h-1.7V18c0-0.4-0.3-0.7-0.6-0.7h-0.3c-0.3,0-0.6,0.3-0.6,0.7v0.7h-1.2v21.8l0.2,1.7v0.2h-0.3v8.3H43
	V18.6L42.3,18.7z M39.5,36.8h-1.9v-3.3c0-0.4,0.3-0.8,0.6-0.8H39c0.3,0,0.6,0.3,0.6,0.8L39.5,36.8z M39.5,28.6h-1.9v-3.3
	c0-0.4,0.3-0.8,0.6-0.8H39c0.3,0,0.6,0.3,0.6,0.8L39.5,28.6z"/>
<path class="st1" d="M85.3,48.9c0.1,0.1,2.3,1.5,2.3,1.5s-19.9-1.9-21.5-1.6C65,49,53.3,49.4,43.4,49.6v-8.5
	c2.1-1.8,5.7-5.5,6.8-6.8c0,0,0,0,0-0.1l0,0c0.1,0,0.1-0.1,0.1-0.1c0-0.1,0.1-0.1,0.1-0.2c0.4,0.3,0.8,0.5,1.2,0.8s0.8,0.6,1.2,0.9
	c0.1,0.1,0.2,0.1,0.3,0.2c0.1,0.1,0.3,0.2,0.4,0.3c0.2,0.1,0.3,0.2,0.5,0.4c0.1,0.1,0.3,0.3,0.4,0.4c0.4,0.4,0.7,0.7,1.1,1
	c0.2,0.2,0.8,0.8,1.1,0.5c0,0,1.3-0.9,1.6-1.6c0,0,3,2.5,3.2,2.1c0.1,0,6.1-5.1,6.6-5.7c0.1,0.2,4.8,5.1,5.4,5.1
	c0.3,0.1,2.1,0,2.1,0s8.3,9.4,13.1,10.4C88.5,48.6,85.2,48.7,85.3,48.9z"/>
<path class="st0" d="M56.2,41.2c0,0.4,0,0.9,0,1.3c0.6-0.2,1.3,0.1,1.8,0.7c0-0.2,0-0.5,0-0.7c0.2,0,0.5,0,0.7-0.1
	c0-0.3-0.3-0.5-0.6-0.7c-0.3-0.1-0.5-0.2-0.8-0.4c-0.1-0.1-0.2-0.3-0.3-0.5c-0.2-0.2-0.5-0.3-0.8-0.2c0,0.4,0,0.8,0,1.2"/>
<path class="st0" d="M73.1,40.9c-0.1,0.2-0.2,0.5-0.3,0.7c-0.1,0.1-0.2,0.1-0.3,0.2c-0.1,0.1-0.1,0.2-0.1,0.4c0.2,0,0.3-0.1,0.5-0.1
	H73c0.1,0,0.1,0.2,0.1,0.3c0,0.8,0,1.5,0.2,2.3c-0.2-1,0.3-2.6,0.6-3.5c0.1-0.3,0.8-1.2,0.4-1.3C73.8,39.7,73.2,40.7,73.1,40.9z"/>
<path class="st0" d="M71.1,38c-0.1-0.5-0.2-1,0-1.5c0.1,0.3,0.7,0.4,0.7,0.8c0.2,0.1,0.4,0.2,0.6,0.3c0.4,0.3,0.9,0.9,0.9,1.5
	C72.8,39,71.3,38.8,71.1,38z"/>
<path class="st0" d="M75.2,43.6c-0.2-0.2-0.5-0.4-0.7-0.7c0.2,0.3,0.5,0.7,0.7,1c0.1,0.1,0.2,0.3,0.2,0.4c0,0.3-0.4,0.3-0.6,0.2
	s-0.4-0.3-0.7-0.2c0.5,0,0.8,0.7,1.1,1.1c0.7,0.9,1.8,1.2,2.3,2.2c-0.6-0.9-1.1-1.8-1.7-2.7c1.3,0.5,2.5,1.3,3.5,2.4
	c-0.9-1.2-1.7-2.5-2.3-3.8c1.6,1.4,3.3,2.7,5,3.9c-0.8-1.3-1.9-2.3-3-3.4c-1.3-1.3-2.6-2.7-3.7-4.2C74.8,40.3,74.6,43,75.2,43.6z"/>
<path class="st0" d="M69.9,44.6c-0.2-0.3-0.5-0.6-0.8-0.8c-0.1-0.1-0.3-0.2-0.4-0.3c-0.2-0.2-0.3-0.5-0.5-0.8s-0.4-0.6-0.7-0.6h-0.1
	v0.1c0,0.3-0.1,0.6-0.1,0.9c0,0.1,0,0.3,0.1,0.4c0.1,0.1,0.2,0.2,0.3,0.3c0.7,0.6,1.2,1.4,1.4,2.4c0-0.3,0-0.7,0.1-1
	c0-0.2,0.1-0.4,0.2-0.4s0.1,0.1,0.2,0.2c0.2,0.5,0.6,0.7,1,1c0.3,0.2,1,0.8,1.3,0.6C71.3,46,70.4,45.5,69.9,44.6z"/>
<path class="st0" d="M66.2,40.7c-0.2,0-0.5,0.2-0.6,0.4c-0.2,0.2-0.3,0.5-0.4,0.7c-0.2,0.3-0.4,0.5-0.6,0.6
	c-0.3,0.2-0.6,0.3-0.9,0.3c-0.1,0.1-0.2,0.3-0.1,0.4c0,0.3,0.3,0.3,0.5,0.3c0.5,0,1.1-0.4,1.5,0c0.3,0.2,0.3,0.7,0.6,0.3
	C66.4,43.5,66.3,40.7,66.2,40.7z"/>
<path class="st0" d="M61.8,42c0,0.2-0.3,0.3-0.4,0.3c-0.6,0-1.2,0.1-1.8,0.2c0-0.4,0.2-0.8,0.4-1c0.2-0.3,0.5-0.4,0.9-0.4
	c0.3,0,0.4-0.1,0.6-0.3c0.2-0.2,0-0.5,0.3-0.4C61.9,40.4,61.8,41.8,61.8,42z"/>
<path class="st0" d="M59.3,39.1c0,0.1,0,0.2,0.1,0.3c0.1,0.3,0.4,0.5,0.5,0.8c0-0.4,0-0.7,0.2-1c0-0.1,0.1-0.2,0-0.3
	c0-0.1-0.1-0.1-0.2-0.1c-0.2-0.1-0.4-0.3-0.6-0.6c-0.3-0.4-0.8-0.6-1.2-0.6C58.4,38.4,59.1,38.4,59.3,39.1z"/>
<path class="st0" d="M57.8,39.5c0.1,0.2,0.2,0.3,0.2,0.5c0,0.1,0,0.2,0,0.3s0.1,0.2,0.2,0.2c-0.2,0-0.3-0.2-0.4-0.4
	c-0.3-0.5-0.6-0.8-1-1.1c0.1-0.1,0.2-0.2,0.3-0.2s0.1,0,0.2-0.1c0.1-0.1,0.1-0.2,0.2-0.3C57.6,38.8,57.6,39.2,57.8,39.5z"/>
<path class="st0" d="M50.6,43.2c0.2,0.5,0.4,1,0.8,1.2c-0.5-0.7-1.2-1.2-2-1.3c-0.1,0.3,0.1,0.5,0.3,0.7c0.8,1,1.6,1.9,2.5,2.8
	c-0.2,0.1-0.4-0.2-0.7-0.3S51,46.1,50.8,46c-0.4-0.1-0.8-0.2-1.2-0.3c-0.1,0-0.2,0-0.3,0c-0.2,0-0.3,0.2-0.4,0.4
	c-0.4,0.5-1,0.6-1.5,0.2c-0.1-0.6-0.2-1.2-0.1-1.7c0.3,0,0.7,0,1,0s0.6,0,0.7-0.3c0.1-0.3-0.2-0.6-0.5-0.7s-0.6-0.2-0.7-0.6
	c0-0.1,0-0.2,0-0.3c0.1-0.8,0-3,1-2.1C49.5,41.4,50.2,42.3,50.6,43.2z"/>
<path class="st0" d="M47.5,38.4c0,0.7,0,1.5-0.5,2c-0.3,0.3-0.8,0.5-1,1c0.2,0,0.3-0.1,0.5-0.2c0.8-0.5,1.4-1.5,1.9-2.4
	c0.1-0.1,0.1-0.2,0.2-0.3c0-0.2,0-0.3,0-0.5c0-0.6,0-0.8-0.4-0.4C48.3,37.5,47.5,38.4,47.5,38.4z"/>
<path class="st0" d="M45.2,42c-0.4,0.3-0.6,0.9-0.8,1.4s-0.6,0.9-0.9,1.3v-2c0.8-1.3,1.7-2.7,2.7-3.6c-0.3,0.9-0.8,1.8-1.2,2.7
	c-0.1,0-0.1,0.2,0,0.3C45,42.1,45.1,42,45.2,42z"/>
<path class="st0" d="M46.7,45.2c-0.1,0.6-0.2,1.3-0.5,1.7c-0.2,0.2-0.4,0.3-0.6,0.5c-0.4,0.3-0.7,0.6-1.1,0.9
	c-0.3,0.2-0.7,0.4-1,0.3v-3.7c1.4-0.3,2.6-1.6,3.4-3c-0.3,1.6-0.8,3.2-1.6,4.5C45.8,46.5,46.3,45.8,46.7,45.2z"/>
<path class="st0" d="M61.1,45c-0.3,0.2-0.6,0.5-0.8,0.9c-0.1,0.2-0.2,0.3-0.3,0.4c-0.3,0.4-0.9,0.6-1.2,1.1c0.3,0.1,0.6,0.1,0.8-0.1
	c0.1-0.1,0.2-0.2,0.3-0.3c0.2-0.1,0.4-0.1,0.5,0c0.4,0.1,0.9,0.1,1.3,0.2c0.2,0,0.4,0.1,0.6,0.1c0.2,0.1,0.4,0.3,0.6,0.4
	c0.4,0.3,0.9,0.5,1.4,0.5c-0.1,0-0.5-1.1-0.6-1.2c-0.2-0.4-0.5-0.8-0.8-1.2c-0.2-0.3-0.5-0.8-0.8-1C61.9,44.6,61.4,44.8,61.1,45z"/>
<path class="st0" d="M69.5,39.9c0.2,0.5,0.5,1,0.7,1.5c0.1,0.2,0.2,0.4,0.3,0.5c0.1,0.2,0.3,0.3,0.4,0.5c0.1,0.1,0.1,0.3,0.2,0.4
	c0.1,0.2,0.3,0.3,0.4,0.4c0.2,0.2,0.3,0.5,0.4,0.6c0.2,0.1,0.3,0.2,0.4,0.3s0.1,0.3,0.2,0.4c0.1,0.2,0.3,0.2,0.5,0.4
	c0.1,0.1,0.2,0.3,0.3,0.5c0.1,0.2,0.4,0.3,0.5,0.4c0.1,0.1,0.2,0.4,0.4,0.5c0.2,0.3,0.5,0.5,0.6,0.8c-0.3-0.2-0.5-0.8-0.8-0.8l0,0
	c0,0,0,0-0.1,0c-0.2-0.1-0.3-0.4-0.4-0.6c-0.1-0.1-0.3-0.1-0.4-0.3c-0.1-0.1-0.1-0.2-0.2-0.3s-0.2-0.1-0.3-0.2
	c-0.4-0.2-0.8-0.7-1.2-0.9c-0.1,0-0.2-0.1-0.3-0.2c-0.1,0.2-0.1,0.1-0.2,0c-0.5-0.6-1.1-1.1-1.7-1.6c-1-0.9-1.8-2-2.5-3.2
	c0.4,0.1,0.8,0.4,1.1,0.8c0.2,0.2,0.4,0.5,0.7,0.7c0.4,0.4,0.8,0.8,1.3,0.9c-0.4-0.3-0.7-0.7-1-1.2c-0.1-0.1-0.2-0.3-0.3-0.4
	c-0.1-0.1-0.2-0.2-0.3-0.3c-0.1-0.2-0.2-0.4-0.4-0.6c-0.1-0.2-0.3-0.3-0.3-0.4c-0.1-0.2-0.2-0.4-0.1-0.6c0-0.1,0.1-0.1,0.1-0.2
	c0.6-0.7,0.4-1.9,0.8-2.7l0.1-0.1c0.1,0,0.2,0.1,0.3,0.2c0.2,0.3,0.4,0.5,0.7,0.7c0.1,0.3,0.2,0.5,0.4,0.6c0.1,0.1,0.2,0.1,0.2,0.2
	c0.2,0.2,0.2,0.5,0.4,0.7c0.1,0.1,0.2,0.1,0.2,0.2s0.1,0.2,0.1,0.3c-0.3-0.1-0.7-0.1-1.1-0.1c0.1,0.2,0.2,0.5,0.4,0.6
	c0.1,0.1,0.2,0.1,0.2,0.2c0.1,0.2,0.1,0.5,0.2,0.7s0.2,0.3,0.2,0.5C71,40,71,40.4,71,40.9c-0.2-0.3-0.5-0.4-0.8-0.6
	C70,40.2,69.7,40,69.5,39.9z"/>
<path class="st0" d="M65.1,37.7c-0.5,0.6-1,1.3-1.4,2c0.4,0,0.8-0.1,1.1-0.4c0,0.2-0.2,0.4-0.3,0.5s-0.3,0.2-0.4,0.4
	s-0.1,0.3-0.2,0.5c-0.1,0.1-0.1,0.1-0.2,0.2c-0.2,0.1-0.3,0.3-0.4,0.5c0.3,0,0.6-0.3,0.9-0.5c0.2-0.1,0.5-0.2,0.7-0.4
	c0.1-0.1,0.1-0.3,0.2-0.4c0.1-0.1,0.2-0.2,0.2-0.2c0.1-0.2,0.2-0.3,0.3-0.5c0.1-0.2,0.2-0.4,0.3-0.7c0.1-0.2,0.2-0.3,0.3-0.5
	c0.2-0.5,0.3-1,0.5-1.5c0.1-0.2,0.1-0.5-0.1-0.4s-0.4,0.3-0.5,0.5C65.7,37,65.4,37.3,65.1,37.7z"/>
<polygon class="st1" points="38.6,14.2 33.5,16.3 33.5,17.3 33.2,17.5 32.8,15.9 38.6,13.6 "/>
<polygon class="st1" points="44.8,15.4 44.5,17.1 43.7,16.8 43.7,15.7 38.7,14.2 38.7,14.2 38.6,14.2 38.6,14.2 38.6,13.6 "/>
<path class="st1" d="M43.7,15.7v1.1l0,0v1.9h-0.3h-1.1v-0.6c0-0.4-0.3-0.7-0.6-0.7h-0.3c-0.3,0-0.6,0.3-0.6,0.7v0.6h-1.4V18
	c0-0.4-0.3-0.7-0.6-0.7h-0.3c-0.3,0-0.6,0.3-0.6,0.7v0.7h-1.7V18c0-0.4-0.3-0.7-0.6-0.7h-0.3c-0.3,0-0.6,0.3-0.6,0.7v0.7h-1.2h-0.3
	v-1.5v-1.1l5.1-2.1l0,0l0,0l0,0l0,0h0.1L43.7,15.7z"/>
<path class="st1" d="M32.4,48.7v0.4 M32.4,49.2v0.3v1.3h1.3v-8.3l-9.9,0.4v7.8h6.4v-6.2h2.1v4.1 M28.5,45.6H27
	c-0.1,0-0.3-0.1-0.3-0.3v-1c0-0.1,0.1-0.2,0.2-0.2h1.6c0.1,0,0.3,0.1,0.3,0.3v1C28.7,45.5,28.6,45.6,28.5,45.6z"/>
<polygon class="st1" points="34,42.5 33.8,42.5 23.9,42.9 23.5,43 24,41.3 33.7,40.3 33.8,40.7 34,42.3 "/>
<line class="st1" x1="32.4" y1="48.8" x2="32.4" y2="49.4"/>
<path class="st1" d="M28.5,45.6h-1.6c-0.1,0-0.2-0.1-0.2-0.2v-1c0-0.1,0.1-0.2,0.2-0.2h1.6c0.1,0,0.2,0.1,0.2,0.2v1
	C28.7,45.5,28.6,45.6,28.5,45.6z"/>
<path class="st2" d="M38.6,24.5L38.6,24.5c-0.5,0-1,0.4-1,1v3.3h1.9v-3.3C39.5,24.9,39.1,24.5,38.6,24.5z"/>
<path class="st0" d="M38.6,32.7L38.6,32.7c-0.5,0-1,0.4-1,1v3.1h1.9v-3.1C39.5,33.1,39.1,32.7,38.6,32.7z"/>
<g class="st3">
	<g>
		<path class="st0" d="M22,59.7c-1.1,1.4-3.1,2.9-5.4,3.5c-2,0.5-4,0.3-5.8-0.7c-0.1,0-0.1-0.1-0.2-0.1c-0.2-0.1-0.2-0.9,0-1.9
			s0.5-1.4,0.7-1.5c0.1,0,0.2,0,0.3,0c1.4,0.3,2.3,0.4,2.8,0.4c1.2,0,2.1-0.4,2.8-0.9c0.4-0.3,0.6-0.8,0.6-1.2
			c-0.1-0.8-0.1-1.1-0.1-1.2c0.1-0.5,0.5-1,1.1-1.6c0.8-0.8,1.8-1.6,3.1-2.3c1.1-0.6,2.2-1,3.5-1.2c0.1,0,0.1,0,0.2,0
			s0.2,0.1,0.2,0.2c0.2,0.4,0.5,1.2,0.7,2.2v0.1c0,0.1-0.1,0.1-0.3,0.1c0,0-0.1,0-0.3,0c-0.1,0-0.2,0-0.3,0c-0.5,0-1,0.1-1.4,0.3
			c-0.6,0.2-1,0.5-1.2,0.8s-0.3,0.7-0.2,1.2c0.1,0.9,0.2,1.5,0.2,1.5C23,58.2,22.6,59,22,59.7z"/>
		<path class="st0" d="M36.6,58.3c-0.5,1.4-0.9,2.5-1.1,2.8c-0.4,0.7-1.4,2-3.2,4c-1.5,1.8-2.8,3.3-3.9,4.3c-0.4,0.4-1.2,0.4-2.4,0
			c-1-0.3-1.6-0.7-1.9-0.9c-0.2-0.1-0.3-0.3-0.3-0.6c-0.2-1.1-0.3-2.8-0.3-4.7c0-2,0.2-3.1,0.4-3.6c0.2-0.5,0.6-1.3,1.3-2.2
			c0.2-0.3,0.5-0.6,0.8-1.1s0.6-0.8,0.8-1.1c0.1-0.2,0.3-0.2,0.5-0.2c0.4,0,0.9,0,1.6,0.1c0.7,0,1.3,0,1.6,0.1
			c0.2,0,0.2,0.1,0.1,0.3s-0.3,0.5-0.5,0.8s-0.4,0.7-0.5,0.9c-0.4,0.7-0.8,1.4-1,1.9c-0.1,0.3-0.1,0.7-0.2,1.7s0,1.6,0.2,1.7
			c0.2,0,0.8-0.5,1.7-1.4c0.9-0.9,1.3-1.3,1.4-1.6c0.3-0.6,0.7-1.3,1.1-2.1c0.1-0.2,0.2-0.5,0.4-1c0.1-0.4,0.3-0.7,0.3-0.9
			c0.1-0.2,0.2-0.3,0.3-0.3c0.2,0,0.4,0,0.8,0c0.3,0,0.6,0,0.8,0s0.4,0,0.8,0s0.6,0,0.8,0s0.3,0.1,0.3,0.3
			C37.3,56,37.1,56.8,36.6,58.3z"/>
		<path class="st0" d="M49.2,61.6c0,0.9-0.1,2.3-0.1,4.6c0,2.3,0,4.4-0.1,5.9c0,0.8-0.2,1.2-0.5,1.2c-1.2,0.2-2.5,0.2-4.1,0
			c-0.2,0-0.3-0.6-0.2-1.7s0-1.6,0-1.6c-0.1,0.1-0.2,0.2-0.3,0.4c-1.2,1.9-2.5,2.9-3.8,2.8c-1.8-0.3-3.1-2.2-3.7-4.8
			c-0.5-2.4-0.3-4.9,0.3-7c0.7-2.5,1.7-3.9,2.9-5s2.5-1.6,4.1-1.6c1.1,0,1.9,0.3,2.4,1.2c0,0,0,0.1,0.1,0.1s0.2-0.2,0.3-0.6
			c0.1-0.4,0.2-0.5,0.3-0.5c0.3,0,0.7,0.1,1.5,0.2c0.7,0.1,1.2,0.3,1.5,0.4c0.1,0,0.2,0.1,0.2,0.2c0,0,0,0.1,0,0.3
			C49.5,57.5,49.3,59.3,49.2,61.6z M45.4,61.6c0.1-1,0-1.7-0.3-2.2s-0.8-0.8-1.5-0.8s-1.2,0.2-1.7,0.7s-0.9,1.2-1.1,2.2
			c-0.2,0.9-0.2,1.8,0.2,2.6c0.4,0.8,0.8,1.3,1.5,1.3c0.7,0.1,1.4-0.3,1.9-1.1C44.9,63.5,45.2,62.6,45.4,61.6z"/>
		<path class="st0" d="M65.5,71.2c0.1,0.5,0,0.8-0.2,0.9s-0.9,0.3-2,0.5c-1.2,0.2-1.9,0.2-2.2,0.1s-0.5-0.5-0.6-1.1
			c-0.1-0.9-0.3-2.2-0.4-3.8c-0.2-1.6-0.3-2.6-0.4-3.3c-0.1-0.5-0.2-1.3-0.3-2.2S59,60.9,59,60.5c-0.2-1.5-0.8-2-1.6-2
			c-0.3,0-0.6,0.2-1,0.5c-0.4,0.4-0.6,0.8-0.5,1.2c0.3,3.4,0.5,5.7,0.9,11.9c0,0.6-0.1,1-0.4,1.1c-0.3,0.1-1,0.2-2,0.2
			c-1.1,0-1.8,0-2.2-0.1c-0.3-0.1-0.5-0.4-0.5-1c0-1.5,0-3.7,0-6.1s0-3.9,0-4.8c0-2.8-0.2-4.4-0.4-5.5c0-0.1,0-0.1,0-0.2
			c0-0.1,0-0.2,0.2-0.3c0.4-0.1,1-0.1,1.8-0.3c1.1-0.2,1.7-0.4,1.8-0.4s0.2,0.2,0.2,0.7c0.1,0.5,0.2,0.8,0.2,0.8
			c-0.1,0,0.3-0.3,1.1-0.8s1.5-0.8,2.1-0.8c0.9,0,1.6,0.1,2.3,0.6c0.8,0.5,1.3,1.2,1.5,2.2c0.4,1.6,0.6,2.5,1.1,4.9
			c0.2,0.8,0.5,2,0.9,4C64.9,68.3,65.3,70,65.5,71.2z"/>
		<path class="st0" d="M75.8,58.9c0.5,0.8,0.5,1.4,0.1,1.6c-0.1,0-0.8,0.3-2.3,0.8c-0.9,0.3-2.2,0.7-4.1,1.2c0.4,0.8,1,1.3,1.7,1.7
			c0.6,0.3,1.3,0.3,1.9,0.2c0.8-0.2,1.4-0.6,1.9-1.3c0.2-0.3,0.4-0.7,0.6-1c0.2,0.1,0.8,0.6,1.7,1.5c0.9,1,1.5,1.6,1.7,1.9
			c0,0.1,0,0.3,0,0.5c-0.3,2.1-1.6,3.8-4,4.6c-2.2,0.7-4.3-0.1-6.2-2.1c-1.9-2-3.2-4.8-3.9-7.4c-0.7-2.5-0.6-4.1,0.1-5.2
			c0.7-1.2,1.8-1.7,3.3-1.7c1.3,0,2.6,0.3,4,1.2C73.7,56.2,74.9,57.3,75.8,58.9z M71.4,58.6c-0.2-0.5-0.6-1-1.1-1.3
			s-0.9-0.5-1.4-0.5s-0.8,0.3-0.9,0.7s-0.1,0.9,0.1,1.5c0.1,0.3,0.2,0.4,0.5,0.3c0.6-0.1,1.4-0.3,2.5-0.6
			C71.3,58.8,71.4,58.7,71.4,58.6z"/>
		<path class="st0" d="M87.4,59.6c0.2,0.2,0.5,0.5,0.8,1s0.6,0.8,0.8,1c0.2,0.2,0.3,0.4,0.3,0.5s-0.1,0.3-0.2,0.5
			c-0.6,1.2-1.6,2.2-2.9,2.9c-2.4,1.3-4.3,0.2-5.7-2.2c-0.4-0.7-1-1.8-1.8-3s-1.2-1.9-1.5-2.4c-0.2-0.3-0.5-0.5-0.9-0.4
			c0,0-0.1,0-0.2,0s-0.1,0-0.1,0c-0.3,0-0.5,0-0.6-0.3c-0.1-0.1-0.2-0.3-0.3-0.5c-0.1-0.2-0.2-0.4-0.3-0.5c-0.1-0.1-0.2-0.4-0.4-0.6
			c-0.2-0.3-0.3-0.5-0.4-0.6s0.1-0.2,0.6-0.3c0.3,0,0.3-0.1,0.3-0.2c-0.1-0.2-0.3-0.6-0.5-1c-0.4-0.7-0.5-1.1-0.5-1
			c-0.2-0.7-0.2-1-0.1-1c0.2,0,0.4,0,0.8,0.1s0.7,0.1,0.8,0.1c0.3,0,0.9,0.1,1.6,0.1c0.2,0,0.3,0,0.3,0.1c0.1,0.2,0.2,0.5,0.4,1
			c0.2,0.4,0.4,0.8,0.5,1c0.2,0.3,0.4,0.4,0.6,0.4c0.3,0,0.6,0,1.1-0.1s0.9-0.1,1.1-0.1s0.3,0,0.3,0.1c0.1,0.1,0.3,0.3,0.4,0.5
			c0.2,0.2,0.4,0.4,0.5,0.5s0.3,0.3,0.6,0.6c0.3,0.2,0.5,0.4,0.6,0.6c0.1,0.1,0.1,0.2-0.2,0.2c-0.2,0-0.4,0.1-0.8,0.1
			s-0.6,0.1-0.8,0.1c-0.3,0-0.5,0.1-0.8,0.1c-0.1,0-0.1,0.2,0.2,0.4c0.1,0.2,0.3,0.4,0.6,0.7c0.3,0.3,0.5,0.6,0.6,0.7
			c0.5,0.6,1,1.1,1.4,1.3c0.5,0.3,1.1,0.3,1.7,0.1c0.2-0.1,0.4-0.2,0.7-0.4s0.5-0.3,0.7-0.4C87.1,59.4,87.2,59.5,87.4,59.6z"/>
		<path class="st0" d="M91.3,56.5c0.5,0.3,1.3,0.7,2.3,1.2s1.7,1,2.1,1.3c0.1,0.1,0.1,0.2-0.1,0.4s-0.8,0.7-1.7,1.3
			c-0.9,0.7-1.5,1-1.8,1.2C91.9,62,91.8,62,91.7,62c0,0-0.1-0.1-0.3-0.3c-0.4-0.5-1.1-1.2-2-2.1s-1.7-1.5-2.1-1.9
			c-1.8-1.5-3.2-2.5-4.2-3.3c-0.1-0.1-0.2-0.1-0.2-0.2c-0.1-0.1,0-0.2,0.2-0.2s0.5,0,0.9,0s0.8,0,1,0s0.5,0,0.9-0.1s0.7-0.1,0.9-0.1
			c0.2,0,0.3,0,0.4,0.1l0.1,0.1C88.1,54.7,89.5,55.6,91.3,56.5z M85.3,52c0.5,0.8,0.3,1.3-1.1,1.3c-0.6,0-1.2,0-1.7-0.2
			c-0.6-0.2-1-0.5-1.2-1c-0.2-0.4-0.1-0.8,0.2-1c0.3-0.3,0.8-0.4,1.3-0.4s1,0.1,1.4,0.4C84.7,51.3,85.1,51.6,85.3,52z"/>
	</g>
</g>
</svg>
